<svg xmlns="http://www.w3.org/2000/svg" viewBox="0 0 712.02 800.02"><defs><style>.cls-1{fill:#cf9eff;}</style></defs><title>Ресурс 1</title><g id="Слой_2" data-name="Слой 2"><g id="Слой_1-2" data-name="Слой 1"><path class="cls-1" d="M424.4,91.7l164.45,95.05A71.57,71.57,0,0,1,690,184.15,74.17,74.17,0,0,1,702.53,200a71.6,71.6,0,0,1-45.2,105.08v190a71.06,71.06,0,0,1,52.72,85.68A73.63,73.63,0,0,1,702.38,600a71.47,71.47,0,0,1-97.65,26.05,68.2,68.2,0,0,1-17.45-14.2l-163.55,94.4a71.34,71.34,0,0,1-45.33,90.1A69.48,69.48,0,0,1,356,800a71.27,71.27,0,0,1-71.35-71.22,72.5,72.5,0,0,1,3-20.32L123.08,613.55A71.33,71.33,0,0,1,19.83,515.12,72.24,72.24,0,0,1,54.73,495V305a71.23,71.23,0,1,1,68.37-118.5L287.68,91.55A71.24,71.24,0,0,1,335.73,3a67.07,67.07,0,0,1,20.32-3A71.24,71.24,0,0,1,427.4,71.1a73,73,0,0,1-3,20.58ZM407.23,121c-.65.65-1.18,1.3-2,2L620.65,495.87c.9-.25,2-.52,2.73-.77V304.87a71,71,0,0,1-51.83-86.2c.13-.77.4-1.7.53-2.47ZM306.7,123l-1.95-2L139.9,216.05A71.23,71.23,0,0,1,91.2,304.2c-.9.25-1.7.4-2.6.65V495.07l2.88.78L306.85,122.92ZM376,139.87a73.44,73.44,0,0,1-39.73,0L120.88,512.8a73,73,0,0,1,20.05,34.77H571.28a72.08,72.08,0,0,1,20.05-34.9Zm32.8,540.88,163.8-94.65c-.53-1.58-.9-3.13-1.3-4.7H140.8l-.77,2.72,164.72,95a71.34,71.34,0,0,1,104,1.55Z"/></g></g></svg>